<svg xmlns="http://www.w3.org/2000/svg" xml:space="preserve" viewBox="0 0 667 667"><path fill="#222" d="M668 507v161c-9.684 0-19.374 0-29.859-.254-15.965-.37-31.135-.486-46.763-.601-37.226-.055-73.993-.123-110.76-.122-1.54 0-3.079.637-4.618.977-1.389 0-2.778 0-4.808-.37-25.848-.387-51.056-.403-76.721-.502-9.237-.082-18.015-.082-26.794-.082 5.332-1.453 10.709-2.218 16.085-2.988 53.377-7.64 101.996-27.558 145.438-59.084 47.305-34.329 83.665-78.14 108.222-131.52 15.151-32.933 24.299-67.437 28.993-102.994.434 6.002.603 11.697.682 17.862-.088 38.452-.097 76.434-.042 114.416.002 1.42.616 2.841.945 4.262zM35 668H1c0-19.687 0-39.375.255-59.858.412-1.768.706-2.74.707-3.714.035-30.732.055-61.465.01-92.198-.002-1.41-.634-2.82-.972-4.23 0-27.02 0-54.042.306-81.819.102-5.897-.102-11.04-.306-16.181 0-10.354 0-20.708.365-31.714.527-2.939.69-5.226.851-7.514 1.08 3.835 1.577 7.706 2.16 11.564.596 3.948 1.176 7.903 1.935 11.822 14.065 72.665 47.458 134.637 102.104 184.929 47.067 43.318 101.724 71.452 164.781 82.952 8.902 1.624 17.809 3.217 26.252 4.863-8.767.116-17.072.193-25.844.186-18.807-.038-37.148.007-55.96-.026-42.154-.038-83.837.002-126 .002-17.62-.044-34.76-.074-51.9-.01-1.583.007-3.163.616-4.744.946z"/><path fill="#232323" d="M668 272c0 4.69 0 9.379-.386 14.718-.538 3.95-.69 7.25-.844 10.551-.968-2.188-1.355-4.44-1.658-6.702-3.325-24.813-9.37-48.955-18.166-72.38C622.77 153.8 581.78 102.326 526.333 62.154 479.617 28.31 426.978 9.85 369.996 2.951c-1.062-.129-2-1.278-2.996-1.951 11.354 0 22.708 0 34.79.339 10.163.37 19.6.4 29.51.512 42.193.085 83.913.09 126.107.124 23.434.024 46.393.04 69.352-.028 1.748-.005 3.494-.617 5.241-.947h36c0 15.687 0 31.375-.254 47.859-.411 1.939-.708 3.08-.708 4.223-.019 41.654-.01 83.307-.001 125.425.07 12.54.138 24.614.198 37.145-.115 17.6-.252 34.744-.284 51.887-.003 1.487.683 2.974 1.049 4.461z"/><path fill="#222" d="M1 58V1c11.686 0 23.374 0 35.857.256 1.77.414 2.746.709 3.722.71 23.165.01 46.33-.01 69.96-.03 33.242.022 66.02.065 98.799.032 1.888-.002 3.775-.63 5.662-.968 1.389 0 2.778 0 4.846.334 21.528.387 42.377.438 63.686.545 5.783.402 11.106.75 15.994 1.092-13.548 2.125-26.842 3.486-39.742 6.52-53.835 12.662-101.907 36.845-143.669 73.314C64.841 127.581 29.951 182.66 12.513 248.5c-4.328 16.341-7.061 33.106-10.376 48.949L1 295c0-21.354 0-42.708.315-64.812.455-2.06.717-3.371.715-4.681-.041-23.45-.115-46.9-.137-70.827.06-31.128.089-61.779.049-92.43C1.94 60.834 1.328 59.418 1 58z"/><path fill="#F3F3F3" d="M1 295.469c.498.602.995 1.673 1.137 1.979 3.315-15.843 6.048-32.608 10.376-48.95C29.951 182.66 64.841 127.582 116.115 82.806c41.762-36.469 89.834-60.652 143.67-73.314 12.9-3.034 26.193-4.395 40.141-6.434C302.508 2.432 304.254 1.716 306 1h60.531c1.465.673 2.403 1.822 3.465 1.95 56.982 6.899 109.62 25.36 156.337 59.205 55.447 40.171 96.438 91.646 120.613 156.031 8.795 23.426 14.841 47.568 18.166 72.381.303 2.263.69 4.514 1.658 6.702.153-3.3.306-6.6.844-10.085.386 24.837.386 49.858-.03 75.262-.756 2.825-1.095 5.265-1.434 7.706-4.43 35.865-13.577 70.37-28.728 103.302-24.557 53.38-60.917 97.191-108.222 131.52-43.442 31.526-92.061 51.445-145.438 59.084-5.376.77-10.753 1.535-16.085 2.988 8.779 0 17.557 0 26.788.282.452.281.535.672.535.672-30.354 0-60.708 0-91.565-.22-.662-.449-.82-.676-.98-.902L302 668c-.444 0-.889 0-1.634-.289-.353-.475-.405-.661-.457-.848-8.904-1.607-17.811-3.2-26.713-4.824-63.057-11.5-117.714-39.634-164.781-82.952C53.769 528.795 20.376 466.823 6.31 394.158c-.759-3.919-1.34-7.874-1.936-11.822-.582-3.858-1.08-7.729-2.159-11.564-.162 2.288-.324 4.575-.851 7.046C1 350.646 1 323.292 1 295.468m15.966 109.019c5.207 24.867 13.914 48.464 24.998 71.313 38.607 79.587 100.294 133.805 182.593 164.41 59.715 22.206 121.148 25.125 183.267 10.75 73.75-17.065 134.462-55.583 181.333-114.535 37.975-47.76 61.553-102.304 68.139-163.606 4.387-40.839 2.449-81.228-8.423-120.882-24.452-89.192-76.85-157.371-157.648-202.093C419.652 10.228 342.9-1.03 262.742 17.308c-76.196 17.432-138.11 57.85-186.089 119.407-35.226 45.194-56.48 96.46-64.343 153.203-5.286 38.155-3.714 76.091 4.656 114.569z"/><path fill="#343434" d="M667.033 178.043c-.005-41.654-.014-83.307.005-124.96 0-1.143.297-2.285.708-3.755.254 42.36.254 85.047.012 128.204a.97.97 0 0 1-.725.511z"/><path fill="#545454" d="M556.932 1.946c-41.72-.005-83.439-.01-125.598-.29C430.894 1.38 431 1 431 1c41.688 0 83.375 0 125.524.237.461.237.408.71.408.71zM92.123 667.104c41.684-.04 83.367-.08 125.481.171.43.292.396.725.396.725-41.688 0-83.375 0-125.506-.225-.443-.224-.371-.67-.371-.67zM668 506.531c-.329-.952-.943-2.372-.945-3.793-.055-37.982-.046-75.964.249-114.4.297-.453.696-.338.696-.338v118.531zM476.469 668c1.07-.34 2.61-.977 4.148-.977 36.768 0 73.535.067 110.805.335.502.212.578.642.578.642H476.469zM214.531 1c-1.418.337-3.305.966-5.193.968-32.779.033-65.557-.01-98.828-.267A.862.862 0 0 1 110 1h104.531z"/><path fill="#343434" d="M1 508.469c.338.941.97 2.35.972 3.761.045 30.733.025 61.466-.01 92.198-.001.973-.295 1.946-.707 3.245C1 574.98 1 541.958 1 508.47zM1 58.469c.328.948.94 2.364.942 3.782.04 30.65.011 61.301-.26 92.39C1.425 155.08 1 155 1 155V58.469z"/><path fill="#BDBDBD" d="M395.469 668c-.469 0-.552-.39-.546-.59 25.213-.183 50.42-.167 75.853.22-24.797.37-49.818.37-75.307.37z"/><path fill="#545454" d="M1 155.469c0-.469.425-.389.637-.35.278 23.487.352 46.937.393 70.387.002 1.31-.26 2.622-.715 4.213C1 205.312 1 180.625 1 155.47z"/><path fill="#343434" d="M557.407 1.975c-.475-.029-.422-.5-.414-.738C581.688 1 606.375 1 631.53 1c-1.278.33-3.024.942-4.772.947-22.959.069-45.918.052-69.352.028zM109.531 1c.469 0 .488.472.516.706-23.138.25-46.303.27-69.468.26-.976-.001-1.951-.296-3.253-.71C61.02 1 85.042 1 109.53 1z"/><path fill="#8C8C8C" d="M283.072 1.824c-20.849-.052-41.698-.103-62.81-.49C240.689 1 261.376 1 282.553 1.206c.489.206.52.618.52.618z"/><path fill="#343434" d="M91.644 667.064c.479.04.407.487.382.711-18.714.225-37.401.225-56.557.225 1.112-.33 2.692-.94 4.275-.945 17.14-.065 34.28-.035 51.9.009z"/><path fill="#8C8C8C" d="M668 271.531c-.366-1.018-1.052-2.505-1.05-3.992.033-17.143.17-34.287.484-51.9.205-.469.566-.639.566-.639v56.531zM218.469 668c-.469 0-.435-.433-.395-.646 18.382-.259 36.723-.304 55.513-.059.45.29.413.705.413.705h-55.531z"/><path fill="#343434" d="M592.469 668c-.469 0-.545-.43-.589-.643 15.126-.097 30.296.019 45.793.389-14.694.254-29.715.254-45.204.254z"/><path fill="#545454" d="M668 214.531a.62.62 0 0 1-.56.652c-.265-12.062-.333-24.137-.403-36.676-.004-.464.479-.507.72-.507.243 12.02.243 24.042.243 36.531z"/><path fill="#8C8C8C" d="M668 387.531c0 .469-.4.354-.606.337-.376-5.711-.545-11.406-.98-17.408.075-2.749.414-5.19 1.17-7.545.416 8.106.416 16.127.416 24.616z"/><path fill="#BDBDBD" d="M283.532 1.879c-.46-.055-.491-.467-.512-.673C290.354 1 297.708 1 305.531 1c-1.277.716-3.023 1.432-5.169 2.062-5.724-.433-11.047-.78-16.83-1.183z"/><path fill="#8C8C8C" d="M430.531 1c.469 0 .363.38.33.576-9.47.163-18.908.132-28.603-.237C411.354 1 420.708 1 430.531 1z"/><path fill="#BDBDBD" d="M274.469 668c-.469 0-.433-.414-.416-.621 8.323-.284 16.628-.361 25.395-.477.513.148.565.334.584.81-8.386.288-16.74.288-25.563.288z"/><path fill="#545454" d="M1 410.467c.204 4.675.408 9.817.306 15.246C1 420.978 1 415.956 1 410.467z"/><path fill="#BDBDBD" d="M302.25 668c-.098-.374.054-.748.206-1.122.158.226.317.453.51.901.034.221-.466.221-.716.221z"/><path fill="#232323" d="M16.9 404.07c-8.304-38.06-9.876-75.997-4.59-114.152 7.862-56.744 29.117-108.01 64.343-153.203 47.98-61.557 109.893-101.975 186.09-119.407 80.156-18.338 156.909-7.08 228.482 32.536 80.797 44.722 133.196 112.901 157.648 202.093 10.872 39.654 12.81 80.043 8.423 120.882-6.586 61.302-30.164 115.846-68.139 163.606-46.871 58.952-107.583 97.47-181.333 114.536-62.119 14.374-123.552 11.455-183.267-10.751-82.3-30.605-143.986-84.823-182.593-164.41-11.084-22.85-19.791-46.446-25.063-71.73m254.423 30.289c-.127.53-.253 1.059-.308 1.592 0 0-.016-.069-.6-.692-4.268 1.595-7.472 5.872-13.013 4.509-1.444-.355-3.685 1.567-5.24 2.836-2.842 2.32-5.095 5.548-8.207 7.319-15.126 8.606-31.498 13.878-48.558 17.078-6.556 1.23-13.133 2.343-19.7 3.51 1.01.916 1.983 1.23 2.855 1.052 13.452-2.755 26.882-5.614 40.336-8.357 5.02-1.024 9.64-4.82 15.233-2.272.355.162 1.46-.407 1.603-.839 1.254-3.775 4.546-4.937 7.714-6.377 5-2.272 9.94-4.682 15.996-6.74.367.083.734.166.763.731-.417.387-.834.774-1.952 1.496-.315.582-.95 1.194-.898 1.741.56 5.964-1.803 7.72-7.803 6.813-4.474-.677-9.882 6.556-9.548 11.533.371 5.557 4.719 9.252 10.383 8.699 2.77-.271 5.518-.765 7.214-1.007l2.142-5.715c1.906.84 3.191 1.405 4.476 1.97l1.08-1.228c-1.087-1.688-2.27-3.323-3.234-5.08-.948-1.73-2.863-4.361-2.285-5.246 2.272-3.478 1.06-7.087 2.16-10.683l2.763.763c.586 3.274.74 5.606 1.542 7.688.229.593 3.063 1.046 3.469.552 1.524-1.86 2.57-4.12 3.724-6.27.317-.59.167-1.64.598-1.926 3.062-2.03 6.219-3.916 9.04-5.66 1.037 2.621 1.436 5.323 2.946 7.062 2.401 2.765 2.361 5.137.76 8.098a12.303 12.303 0 0 0-1.397 4.727c-.37 4.555 2.797 6.637 7.071 5.056a81.187 81.187 0 0 1 10.017-2.967c1.052-.24 2.333.518 2.939 1.225-3.24 5.13-4.521 11.751-11.642 13.934 3.739 3.036 6.921 3.613 10.64 1.6 1.965-1.064 4.29-1.363 3.951 2.438-1.634 1.88-3.129 3.906-4.927 5.614-8.09 7.68-16.33 15.203-24.37 22.936-2.468 2.374-4.468 5.236-6.622 7.803 4.315-.215 7.819-.673 11.287-.483 3.636.199 7.236 1.042 10.858 1.561 6.57.943 10.425-.53 13.21-6.342 3.257-6.796 8.993-12.487 9.416-20.62.046-.885 1.276-1.71 2.407-3.127 2.63 6.836 7.908 3.726 12.514 4.012.122 1.407.413 2.704.315 3.972-.811 10.454 4.796 16.568 13.857 20.03 4.005 1.53 8.264 2.755 12.508 3.233 13.828 1.558 22.107-3.614 27.605-16.548.405-.953 1.294-2.07 2.204-2.373 3.878-1.29 3.316-3.795 1.69-8.448l-2.224 4.855c-1.66-3.46-2.99-5.932-4.026-8.522-.504-1.26-1.141-3.305-.546-4.023 2.586-3.12 5.603-5.883 8.433-8.03-1.126 3.21-3.133 6.21-.469 9.792 3.957 5.321 8.434 5.037 13.647 1.14-.533 1.893-1.024 2.913-1.596 3.886-.246.419-.69 1.086-.989 1.057-7.466-.723-7.59 4.281-7.477 9.49.01.439.001.878.001.907 2.22-.478 4.4-.77 6.447-1.46 1.077-.363 2.443-1.237 2.778-2.194 1.513-4.329 3.365-8.697 3.857-13.187.769-7.02.446-14.155.763-21.233.223-4.998 1.448-5.59 5.802-3.192 4.388 2.418 6.416 1.595 6.934-3.402.735-7.101 1.022-14.249 1.933-22.038.423-2.623.917-5.238 1.257-7.872 1.1-8.55 2.901-17.132-.853-26.249-2.203-7.682-7.989-12.412-14.483-17.459-5.07-3.645-10.139-7.29-15.46-11.59-5.874-7.23-7.69-15.553-5.276-24.365 3.197-11.67 11.17-19.122 22.447-23.332 2.188-.817 3.964-2.736 6.553-4.477l11.563-6.991 1.353.551c-2.995 6.994.927 9.766 6.05 12.184 2.65 1.25 4.89 3.366 7.59 5.73 7.242 10.055 8.019 21.227 6.345 33.103-1.665 11.823-2.713 23.74-3.73 35.641-.155 1.81 1.32 3.761 2.042 5.647 1.703-1.178 3.98-1.988 5.01-3.597 4.83-7.542 10.066-14.964 13.73-23.074 4.35-9.623 3.768-19.825-.98-29.432-3.882-7.856-8.196-15.498-12.13-23.329-9.054-18.022-10.352-37.009-5.438-56.234 2.526-9.882 6.91-19.285 10.334-28.947.692-1.953 1.858-4.726 1.049-6.037-2.436-3.949-5.738-7.362-8.689-10.968-2.411 3.864-4.249 6.86-6.148 9.815-.433.674-1.331 1.12-1.587 1.826-2.023 5.587-4.09 11.164-5.856 16.835-2.503 8.035-4.76 16.148-7.339 25.044-.386 7.409-.724 14.82-1.206 22.223-.084 1.29-.803 2.533-1.177 3.812-.454 1.547-.853 3.11-1.614 5.914-2.664 1.545-6.796 3.94-11.654 6.269-1.04.072-2.577-.274-3.041.28-5.843 6.974-16.675 10.174-25.595 6.804-5.265-2.582-10.787-4.375-10.925-12.215-.08-4.55-4.109-6.27-8.429-5.404.107 1.627.616 3.33.224 4.793-.602 2.246-2.29 4.24-2.708 6.492-4.314 23.265-18.908 37.784-42.516 40.207-9.618.987-19.511-.709-29.922-1.61-9.785-3.47-19.569-6.94-29.805-10.978-1.706-.815-3.584-1.393-5.088-2.485a432.002 432.002 0 0 1-18.844-14.477c-10.299-9.202-17.373-20.806-24.453-33.259-11.847-22.856-18.084-47.524-23.28-73.124 1.286-1.437 2.295-3.487 3.902-4.214 15.07-6.82 27.967-16.255 35.56-31.273 5.765-11.398 10.355-23.359 8.053-37.508-.873-3.546-1.426-7.208-2.676-10.616-5.074-13.833-16.957-21.245-31.41-18.514-19.572 3.697-32.327 16.06-39.793 34.146-.707 1.713-.277 3.895-1.082 5.98-1.133 1.36-2.266 2.718-3.58 4.846-.633 3.216-.944 6.537-1.952 9.63-4.844 14.86.412 31.26 13.587 40.72 4.658 1.751 9.345 3.431 13.957 5.297 1.343.543 2.473 1.615 3.57 3.25-.755 2.867-.942 6.063-2.376 8.536-3.838 6.623-4.658 13.203-2.134 20.493.823 2.378.13 5.28.13 8.61l-8.34-3.208c-3.483 12.69-6.819 24.956-10.227 37.202-1.137 4.084-.448 7.614 1.702 11.362 4.281 7.467 3.289 12.956-2.595 19.065-.685.71-1.513 1.496-1.741 2.384-.426 1.658-.975 3.608-.438 5.052.265.71 2.836.72 4.37.755 1.482.034 2.974-.294 4.459-.487 6.05-.787 6.843-.203 8.135 5.662.28 1.269.62 2.728 1.442 3.64 3.904 4.33 7.983 8.501 12.027 12.703.02.02.428-.336.61-.589 0 0-.08-.03-.824.39.585.861 1.17 1.723 1.821 3.16.288.484.575.967 1.155 2.216.62.095 1.24.189 1.838.217 0 0-.066-.025-.823.412.964 2.779 3.523 6.302 2.63 8.214-5.235 11.215-7.284 22.325-1.895 33.98.573 1.24 1.543 3.041 2.517 3.171 1.369.183 3.97-.701 4.181-1.577.568-2.366 1.167-5.717-.04-7.357-7.449-10.115-8.313-19.337-1.91-28.836 2.39 1.437 4.787 2.878 7.57 4.876 3.178 1.928 4.868 4.311 4.75 8.47-.064 2.286 1.79 5.727 3.733 6.656 1.936.926 5.155-.364 7.633-1.207 1.525-.518 2.715-2.02 5.25-4.025-.82 8.752 4.482 11.476 9.885 14.323 2.04-1.953 3.983-3.75 5.855-5.618 3.177-3.167 6.644-4.167 10.915-1.145.263.226.526.452.841 1.335.954 1.123 1.909 2.246 3.286 3.978 3.318.8 6.61 1.734 9.959 2.365 4.585.864 8.935 1.92 9.802 7.001-8.222.954-16.422 2.277-24.671 2.75-7.21.414-7.814-.623-6.763-8.546-3.804.88-7.186 1.66-11.278 2.549-4.648 1.242-9.26 2.646-13.954 3.677-4.164.914-7.535-.385-9.46-4.505-.419-.894-.852-2.056-1.612-2.451-1.15-.6-2.594-.634-3.913-.91-.093 1.232-.744 3.064-.18 3.588a47.918 47.918 0 0 0 7.642 5.812c2.736 1.667 5.832 2.733 8.63 4.31 5.035 2.837 9.666 6.762 15.028 8.534 4.718 1.56 10.203.797 16.193 1.211l11.587 2.37c.388-.531 1.158-2.475 2.57-3.247 1.23-.673 3.185-.027 4.82.037-.383 1.26-.676 2.556-1.177 3.767-.449 1.084-1.128 2.074-1.62 3.092 0 0-.005-.088-.497-.883-.505.337-1.01.674-2.205 1.228m-163.446-88.555c-1.762-1.899-3.598-3.734-5.268-5.71-2.855-3.38-6.25-3.389-8.316.498-.88 1.656-1.385 4.786-.46 5.838 1.495 1.698 4.276 2.33 6.593 3.202.768.29 1.78-.068 2.743-.134l.39 5.911c2.511-1.593 5.035-2.342 5.81-3.94.692-1.428-.545-3.791-.044-6.308l8.094 4.505-3.38-9.424c-1.417.55-3.116.79-4.163 1.745-.86.786-.947 2.42-2 3.817M80.14 382.9c-3.091-11.523-6.17-23.048-9.282-34.565-.951-3.52-1.565-7.233-3.182-10.428-.765-1.51-3.532-2.008-5.392-2.965.042 1.864-.44 3.948.23 5.55 1.713 4.086 4.387 7.798 5.873 11.947 3.852 10.759 7.27 21.673 10.957 33.256l5.795 16.026 1.307-.46c-2.09-5.865-4.18-11.73-6.306-18.361m328.2.69c14.18 8.245 23.429 19.442 22.121 36.96-.011.155.086.319-.13 1.37-.37 5.123-.653 10.254-1.126 15.366-.67 7.247-1.718 14.469-2.087 21.728-.112 2.196.934 5.148 2.52 6.461.894.74 4.449-.612 5.985-1.958 9.578-8.388 18.924-17.041 28.968-25.844 6.229-6.481 12.478-12.942 18.681-19.447 8.675-9.097 14.643-19.653 17.446-31.99 5.45-23.991 6.245-48.262 2.626-72.443-3.622-24.199-8.14-48.3-13.374-72.202-2.048-9.35-5.651-19.083-11.144-26.79-8.742-12.265-19.614-23.019-29.692-34.316-2.252-2.525-4.947-4.654-8.42-7.876-.372 3.2-.758 4.936-.746 6.67.091 12.724 2.881 24.921 9.674 35.641 6.926 10.93 14.832 21.25 22.474 31.715 9.754 13.359 19.418 27.078 22.187 43.571 2.128 12.676 1.33 25.842 1.603 39.528-2.785 11.721-8.031 22.07-16.612 30.697-1.546 1.554-3.284 4.017-3.167 5.953 1.128 18.658-7.691 33.309-18.522 47.167-1.597 2.045-3.726 3.861-5.968 5.17-2.918 1.704-5.66 1.176-7.225-2.28-.68-1.5-1.398-2.982-2.058-5.406l2.064-46.968c-9.004 4.48-18.643 6.117-29.353 4.074-4.182-2.204-8.623-4.038-12.468-6.724-3.304-2.31-3.263-5.81-1.165-9.328 3.66-6.136 9.467-8.95 16.097-9.07 8.057-.144 16.134.879 24.316 1.404-.325-.443-.68-1.185-1.252-1.668-8.848-7.478-18.935-8.729-29.41-4.704-10.04 3.858-16.006 11.612-17.8 22.297-1.551 9.242 3.604 15.057 10.552 19.853 1.355.935 2.71 1.87 4.405 3.389M535.5 372.425c3.983.172 5.424-2.895 6.434-5.732 1.1-3.091 2.875-3.992 5.883-3.703 10.7 1.029 20.2 5.158 28.856 11.29 7.78 5.513 12.46 13.232 14.97 22.341.762 2.77 2.59 4.953 5.294 3.473 1.463-.801 2.6-4.04 2.252-5.868-.496-2.614-2.052-5.353-3.909-7.332-15.85-16.891-35.408-27.847-57.685-35.634-2.45-1.002-4.909-1.981-7.347-3.009-3.92-1.652-4.038-3.998-1.899-7.48 3.34-5.437 8.364-6.474 14.09-6.632 2.924-.08 5.83-.75 8.745-1.154l.151-1.813c-2.144-1.005-4.221-2.68-6.443-2.9-9.906-.984-19.853-1.556-29.786-2.271-3.193-.23-4.19 1.217-4.33 4.435-.698 16.085-1.727 32.154-2.466 48.237-.077 1.671.994 3.395 1.533 5.095 1.843-1.171 3.804-2.201 5.466-3.59.595-.496.494-1.853.664-2.825 1.153-6.591 4.892-9.028 11.385-7.353 2.547.658 5.068 1.417 8.142 2.425m-200.447-62.937c-3.535 6.296-6.256 13.261-10.771 18.75-9.875 12.004-23.716 17.758-38.415 21.646-1.789.474-3.482 1.312-5.22 1.982l.028 1.326c2.766.939 5.467 2.306 8.31 2.732 7.217 1.08 14.48 2.146 21.759 2.495 28.382 1.359 44.767-11.871 48.245-39.347.67-12.992.258-25.855-4.733-38.937-2.596-5.366-4.7-11.045-7.874-16.043-13.66-21.506-37.565-25.956-57.453-9.97-20.25 16.278-31.353 37.26-27.84 64.06 1.4 10.69 6.662 19.172 17.46 24.484 3.26-.09 6.778.586 9.74-.403 13.94-4.655 25.665-12.867 35.95-23.598-1.967-2.605-4.34-4.87-5.62-7.64-2.039-4.415-4.196-9.066-4.756-13.8-.71-5.993 3.98-11.214 9.118-11.902 4.427-.593 10.792 3.582 11.796 8.845.91 4.759.425 9.784.276 15.32m48.504-66.895c1.2-3.53 2.954-6.98 3.49-10.61 1.271-8.616 1.965-17.318 3.355-26.477 5.659-9.256 14.62-12.001 24.69-12.309 6.268-.191 12.547-.035 19.211-.035.172-1.602.362-3.384.776-5.976 2.677-9.963.273-18.343-7.562-25.213-3.251-2.85-6.101-6.153-9.263-9.112-39.35-36.825-84.583-44.52-134.454-26.093-12.687 4.688-24.457 11.888-36.52 18.18-1.179.614-2.216 3.075-2.02 4.5 1.583 11.475-.376 22.538-3.858 34.015-7.366 20.243-19.851 35.968-39.83 45.053-3.192 1.451-5.922 2.915-4.596 7.341 3.708 12.377 7.243 24.806 10.964 37.954 1.322 3.374 2.546 6.792 3.985 10.115 5.08 11.731 10.227 23.434 18.997 33.868 10.043 13.34 29.295 28.387 37.802 28.993-2.445-2.734-4.541-5.042-6.598-7.384-6.9-7.853-10.584-17.25-9.927-27.457 1.558-24.238 10.935-45.056 29.665-61.088 13.048-11.169 28.146-14.374 44.79-10.837 9.352 1.987 16.227 8.049 23.083 14.178 6.245 5.582 16.097 5.916 22.422.392 3.96-3.457 7.225-7.71 11.398-11.998m98.065 32.348c-4.093-7.204-8.129-14.441-12.309-21.595-1.52-2.6-3.693-4.275-5.083-.035-4.074 12.42-8.018 24.886-11.684 37.43-.763 2.61-.11 5.634-.11 8.467l1.373.172c.424-1.485.442-3.314 1.352-4.388 2.161-2.549 4.528-6.21 7.226-6.608 2.132-.315 6.348 3.129 7.088 5.651 2.405 8.2 4.694 16.725-.537 24.977-2.989 4.715-2.367 5.622 3.28 5.71-3.017 5.326-3.55 5.404-11.172 2l13.62 28.584c10.119-8.91 19.495-34.463 16.769-47.89-2.192-10.798-6.247-21.218-9.813-32.475M490.808 455c1.287-5.327-4.581-4.209-6.549-7.234l4.947-9.612c3.15 4.906 5.195 2.79 6.674-.272 1.142-2.362 2.06-4.936 2.484-7.513.43-2.614 1.663-3.313 4.096-3.96 2.513-.668 5.507-2.055 6.86-4.083 4.125-6.183.49-20.34-6.07-24.832-6.45 17.372-19.732 29.297-32.671 41.558-6.4 6.064-12.397 12.556-18.481 18.946-1.134 1.19-1.815 2.812-3.52 5.54 14.055-.09 24.186-5.6 34.03-13.915.176 2.878-.054 5.352.553 7.6.918 3.398 4.033 2.72 7.647-2.223m-348.693-192.72c1.305 4.592 2.497 9.22 3.948 13.765 1.256 3.933 3.769 7.71 4.024 11.666.503 7.804 6.128 10.678 11.076 14.632 3.947-12.565 7.721-24.576 11.49-36.59.149-.473.27-.958.366-1.446.753-3.875-1.756-7.325-5.706-6.64-8.837 1.531-13.435-3.65-16.965-10.173-2.906-5.371-4.931-11.217-7.4-16.83-1.808-4.11-3.703-8.185-5.696-12.577-3.504 3.856-3.713 5.58-.586 10.229 4.845 7.202 6.922 14.997 6.16 23.605-.28 3.146-.483 6.299-.71 10.36m-18.224 127.104c-2.898 3.11-3.696 6.583-1.859 10.537 5.494 11.827 25.84 17.61 36.693 10.54 3.106-2.024 6.508-3.593 10.197-5.6l-27.302-20.64c-2.043.533-4.675 1.197-7.295 1.908-3.293.894-6.577 1.826-10.434 3.255m352.425-198.197-8.31-7.06-1.1.953c.193.916.103 2.055.622 2.715 6.336 8.057 11.952 16.914 19.38 23.812 8.011 7.438 19.519 3.299 23.01-7.213 2.963-8.919 3.117-17.913-.892-26.648-.401-.875-1.555-1.405-3.248-2.857.826 3.15 1.69 4.878 1.625 6.57-.09 2.317-.162 5.282-1.54 6.761-2.535 2.723-5.868 4.819-9.132 6.726-8.53 4.984-13.449 4.084-20.415-3.759m-399.24 93.056c1.434 4.264 3.828 7.39 8.844 7.242 5.012-.148 8.058-3.178 9.384-7.566 1.027-3.4 1.574-7.14 1.356-10.67-.223-3.602-2.322-7.116-6.277-7.286-2.967-.128-6.617.753-8.893 2.544-4.69 3.693-5.397 9.245-4.414 15.736M549.77 403.671c-13.777-5.186-24.854-3.524-28.477 4.233.852 1.178 2.013 2.22 2.47 3.51 2.345 6.611 7.44 8.962 13.694 5.735 2.91-1.5 5.448-3.745 8.085-5.745 5.924-4.495 6.455-4.478 12.07.518.518.46 1.356.56 2.046.826l.872-1.14c-1.726-4.33-6.14-5.72-10.76-7.937m-59.826 64.382c4.47-.514 8.473.13 11.937 3.507 1.04 1.013 3.269.872 4.975 1.061.26.029 1.028-1.393.907-1.52-1.077-1.125-2.166-2.753-3.502-3.031-7.43-1.546-14.885-3.378-22.416-3.898-7.015-.484-12.964 2.834-16.437 9.231-.85 1.566-1.011 4.526-.072 5.805 1.399 1.906 4.387 4.325 6.102 3.93 2.599-.598 5.924-3.001 6.74-5.39 1.924-5.625 5.611-8.322 11.766-9.695m-311.19-54.368c-2.841.899-5.8 1.543-8.482 2.786-1.798.834-3.367 2.364-4.743 3.855-1.994 2.16-4.656 4.35-5.247 6.937-.424 1.856 1.538 5.152 3.387 6.43 3.005 2.076 5.326-.634 7.692-2.576 1.154-.947 3.204-.837 4.863-1.123 2.15-.37 5.072.065 6.264-1.183 1.228-1.286 1.428-4.349.905-6.323-.784-2.96-2.593-5.649-4.639-8.803m257.756-62.857c-8.796-1.558-17.482-1.386-25.82 2.131-1.33.56-2.706 2.047-3.091 3.385-.2.69 1.563 2.582 2.734 2.926 9.046 2.658 18.266 3.305 27.325.401 1.868-.598 3.018-3.434 4.499-5.24-1.603-1.153-3.206-2.306-5.647-3.603m-236.843 78.996-8.444-9.53c-1.014 2.793-2.253 4.507-2.088 6.073.479 4.558.104 8.41-3.197 12.188-1.088 1.244.166 5.235 1.378 7.392.401.715 4.361.193 6.077-.815 1.605-.942 2.393-3.275 3.132-4.385l11.858 1.67.365-1.207c-2.877-3.612-5.753-7.223-9.081-11.386m201.189-170.736c-1.306-4.23-4.31-6.253-8.596-6.134-3.94.11-7.733 4.142-8.872 8.996-1.008 4.293 1.527 8.425 6.822 11.534 6.966-2.043 11.295-5.997 10.646-14.396m-192.73 174.289 5.057 7.565c5.224-9.36 5.848-15.05 2.996-18.337-4.52-5.209-13.248-7.687-19.781-4.757 3.87 5.129 7.58 10.048 11.728 15.529m81.626 54.15c-2.547-4.281-.532-6.844 3.313-8.656.89-.42 2.127-.361 2.774-.976.956-.908 1.527-2.222 2.263-3.363-1.128-.443-2.61-1.578-3.325-1.213-3.421 1.745-6.635 3.897-9.923 5.905l.49.626-6.965 2.31c1.197 2.57 2.314 5.182 3.647 7.68.327.612 1.406.784 2.057 1.268 1.546 1.148 3.364 2.12 4.485 3.605 1.686 2.234 3.17 4.56 6.377 3.277 3.497-1.398 3.65-4.238 2.883-6.707-2.857-1.173-5.211-2.14-8.076-3.756M499.81 158.713c-5.543-7.963-11.806-14.873-21.784-15.97-.7 2.872-1.353 4.975-1.68 7.127-.183 1.21-.264 2.948.422 3.62.583.572 2.327-.07 3.56-.123 1.514-.065 3.44-.695 4.476-.008 5.839 3.872 13.172 5.95 16.255 13.302.553 1.32 2.175 2.19 4.24 4.163-.445-2.12-.448-2.976-.798-3.652-1.372-2.65-2.853-5.245-4.691-8.46M474.218 536.61c.563-.82 1.222-1.591 1.673-2.47 2.078-4.053.824-8.663-3.294-10.577-4.327-2.01-6.288 1.411-8.136 4.391-.68 1.099-1.402 2.53-1.261 3.708.323 2.721.295 6.48 1.988 7.818 2.844 2.245 6.313.807 9.03-2.87M145.396 323.942c2.726-4.77 2.528-8.64-.74-11.056-3.258-2.41-6.284-1.468-8.868 1.17-2.954 3.017-3.086 7.9-.451 10.831 3.333 3.708 6.468 1.966 10.059-.945m16.436 28.861-1.931-4.665c-2.223 2.815-4.386 5.369-6.339 8.074-2.281 3.162-2.594 6.665.279 9.446 1.505 1.458 4.42 3.012 6.041 2.49 4.014-1.295 5.088-4.726 3.652-8.83-.651-1.86-1.036-3.814-1.702-6.515m-65.962 11.69c.943.925 1.747 2.098 2.86 2.718 1.775.99 4.737 2.777 5.463 2.167 2.07-1.741 4.222-4.432 4.457-6.927.149-1.584-2.851-3.8-4.837-5.145-1.62-1.098-3.83-1.324-6.285-2.096-1.096 1.43-2.769 2.954-3.507 4.842-.407 1.039.757 2.692 1.849 4.44m-6.906-49.738c-1.711 1.705-3.692 3.218-5.077 5.156-2.895 4.053-.29 6.805 2.76 9.18 3.198 2.49 5.387-.048 7.197-2.012 4.213-4.575 2.101-10.567-4.88-12.324m230.982-15.4c.424 4.695 2.598 8.28 6.406 11.076 4.786-3.847 4.645-8.603 3.124-13.014-.756-2.192-3.634-3.651-5.552-5.442-1.338 2.182-2.675 4.363-3.978 7.38m145.241 4.228-1.58-6.177c-2.231 1.787-2.936 3.626-4.024 5.2-1.062 1.536-2.33 3.712-3.83 4.016-4.547.923-3.412 3.157-1.787 5.605 1.238 1.865 2.768 3.535 4.206 5.34 4.275-3.784 7.294-7.593 7.015-13.984M588.081 483.17c2.019-.796 4.37-1.181 5.981-2.482 2.611-2.107 4.373-5.185 1.274-8.054-1.666-1.543-5.89-3.213-6.35-2.66-1.805 2.176-2.997 5.13-3.55 7.964-.283 1.448 1.268 3.254 2.645 5.232M173.164 233.264l4.686 12.138 1.687-.107 4.513-14.215c-3.284-.688-5.82-1.518-8.377-1.587-.844-.022-1.741 1.921-2.509 3.771m-83.65 11.99c-.865 3.64-.515 6.916 3.883 7.558 3.773.55 6.342-1.755 6.088-5.408-.169-2.424-2.115-4.724-3.266-7.08-2.137 1.406-4.273 2.812-6.705 4.93m60.717 90.933 7.652 6.861 2.135-1.368c-1.15-3.363-1.436-7.631-3.718-9.806-1.851-1.765-6.099-1.016-9.284-1.382l-.36 1.407a380.338 380.338 0 0 1 3.575 4.288m240.78-36.576c-.919-2.962-1.584-6.05-2.95-8.789-.31-.621-3.704-.705-4.543.12-2.768 2.719-2.38 5.948.04 8.88 2.175 2.635 4.554 3.172 7.454-.211m-8.868 244.824 4.28-23.953c-2.967 6.66-4.588 12.83-8.163 17.51-2.796 3.66-.987 5.516.428 7.913 1.239 2.097 2.622 1.692 3.455-1.47m31.666-48.101c1.767 1.064 3.614 3.068 5.278 2.926 1.62-.139 3.654-2.228 4.353-3.933.467-1.139-.678-3.529-1.814-4.616-2.697-2.584-5.694-.649-7.817 5.623M155.72 468.96c-2.42-.531-4.847-1.038-7.26-1.602-2.325-.543-4.636-1.144-6.954-1.72l-.202 1.297c11.085 4.398 22.557 5.653 34.367 3.945-2.594-.882-5.276-.77-7.945-.909-3.718-.193-7.425-.573-12.006-1.01m374.296-47.501c-1.613-.264-3.276-.886-4.825-.676-1.225.167-2.312 1.356-3.46 2.09.766 1.159 1.28 2.915 2.346 3.365 3.463 1.46 7.098 2.205 10.79-1.317-1.638-1.207-2.915-2.148-4.85-3.462m-397.855-86.367 2.247 6.179c1.423-.886 3.52-1.468 4.094-2.738.666-1.473.697-4.153-.239-5.241-1.978-2.302-4.077-.75-6.102 1.8m46.686 72.372 5.415 3.33 1.271-1.37-6.11-10.13-2.09.825c.332 2.274.663 4.548 1.514 7.345m403.011-69.44c-.31-.76-.406-1.826-.972-2.22-1.335-.932-2.893-1.545-4.361-2.287-.533 1.455-1.849 3.224-1.42 4.295.687 1.72 2.527 2.98 3.88 4.433.994-1.143 1.987-2.287 2.873-4.22M271.916 548.09c1.363 4.981 3.603 9.294 8.868 11.314-1.51-5.053-4.923-8.725-8.868-11.314m282.911-108.683 3.907 3.638c.8-1.271 2.364-2.646 2.209-3.788-.195-1.435-1.796-2.679-2.79-4.005-1.128 1.111-2.255 2.223-3.326 4.155m-314.206-3.078 2.36-5.692c-.974-.294-2.469-1.135-2.834-.788-1.574 1.498-2.817 3.344-4.181 5.063 1.33.581 2.66 1.162 4.655 1.417m162.284-135.52L400.92 296c-1.155.667-3.127 1.182-3.288 2.037-.288 1.536.51 3.277.855 4.932 1.357-.495 2.714-.99 4.418-2.16m7.561 209.859c-1.297-.81-2.563-2.14-3.903-2.22-.72-.042-2.222 2.092-2.176 3.194.048 1.157 1.524 2.254 2.377 3.378 1.236-1.208 2.473-2.416 3.702-4.352M139.85 201.328c1.293.715 2.578 1.925 3.882 1.948.706.012 2.141-2.11 1.992-3.075-.176-1.146-1.702-2.084-2.643-3.112-1.09 1.145-2.18 2.29-3.23 4.24m81.484 313.067c1.185.66 2.38 1.82 3.55 1.794.72-.015 1.825-1.791 1.953-2.872.09-.753-1.635-2.467-1.783-2.385-1.34.752-2.511 1.804-3.72 3.463m52.453-40.373c-.661-1.426-1.144-3-2.115-4.168-.23-.276-2.441.545-3.112 1.372-.495.61-.209 2.872.146 2.976 1.45.424 3.059.303 5.081-.18M441.47 536.88l.747-4.478-1.21-.868c-1.216.96-2.7 1.734-3.546 2.951-.487.7.058 2.119.14 3.214 1.139-.103 2.278-.206 3.87-.819m20.903-382.97-1.49 3.66 8.12-2.148c-.065-.671-.13-1.342-.193-2.013-1.978 0-3.955 0-6.437.501m-71.361 362.692 4.478-6.852-1.757-1.068-7.461 11.99 1.385.905c.987-1.443 1.974-2.886 3.355-4.975m172.046-200.084 1.401-2.003-5.515-2.428c-.35.979-.823 1.94-.965 2.948-.04.277.868.85 1.422 1.01.93.27 1.924.32 3.657.473m-48.35 100.455 4.842-2.64-.45-1.722-4.768-.901c-.094 1.627-.189 3.253.376 5.263M393.38 543.38l-5.291 1.282 1.047 2.92c1.5-.59 3.044-1.098 4.466-1.838.298-.155.152-1.164-.222-2.364m-121.267-17.286.614.266.07-1.18c-.233.086-.466.172-.684.914z"/><path fill="#F5E7E7" d="m434.856 187.996-.553 5.166c-6.664 0-12.943-.156-19.21.035-10.072.308-19.032 3.053-25.307 12.54-3.475-.642-6.417-1.308-9.18-2.42-19.836-7.98-40.711-8.906-61.418-6.983-25.932 2.409-49.726 11.847-70.123 28.396-14.903 12.092-28.048 25.88-36.726 43.385-.954 1.926-2.986 3.317-4.518 4.956-3.602-12.408-7.137-24.837-10.845-37.214-1.326-4.426 1.404-5.89 4.597-7.341 19.978-9.085 32.463-24.81 40.47-45.303 2.774-1.134 4.91-2.005 7.036-2.902 11.765-4.97 23.237-10.854 35.352-14.726 23.712-7.577 48.191-8.375 72.851-5.66 24.214 2.667 46.458 10.922 67.382 23.142 3.249 1.898 6.788 3.299 10.192 4.93z"/><path fill="#F6E0DF" d="M207.88 273.44c1.473-2.008 3.505-3.4 4.46-5.325 8.677-17.504 21.822-31.293 36.725-43.385 20.397-16.55 44.19-25.987 70.123-28.396 20.707-1.923 41.582-.997 61.418 6.983 2.763 1.112 5.705 1.778 8.949 2.665-.543 8.683-1.237 17.385-2.509 26.002-.535 3.629-2.29 7.078-4.135 10.748-21.734-11.558-44.24-14.19-67.676-9.948-17.507 3.168-33.099 10.538-46.884 21.934-13.508 11.166-23.28 24.974-30.02 40.968-2.944 6.984-5.117 14.293-7.64 21.454-8.54-9.78-13.686-21.483-18.766-33.214-1.44-3.323-2.663-6.74-4.044-10.485z"/><path fill="#F4EDED" d="M434.968 187.591c-3.516-1.225-7.055-2.626-10.304-4.524-20.924-12.22-43.168-20.475-67.382-23.141-24.66-2.716-49.139-1.918-72.85 5.66-12.116 3.87-23.588 9.755-35.353 14.725-2.126.897-4.262 1.768-6.774 2.657 2.58-10.982 4.538-22.045 2.956-33.52-.197-1.425.84-3.886 2.019-4.5 12.063-6.292 23.833-13.492 36.52-18.18 49.871-18.427 95.104-10.732 134.454 26.093 3.162 2.959 6.012 6.262 9.263 9.112 7.835 6.87 10.239 15.25 7.45 25.618z"/><path fill="#F6DAD9" d="M259.085 397.974c-.263-.225-.526-.45-.94-1.267-2.73-4.79-5.405-8.935-7.87-13.2-7.345-12.703-11.183-26.575-13.022-41.007-.303-2.378 1.055-4.967 1.646-7.46 6.18 4.639 12.32 9.333 18.573 13.873 1.504 1.092 3.382 1.67 5.311 3.193.681 3.308.714 6.076 1.667 8.479 5.315 13.404 13.367 24.765 25.097 33.453 17.53 12.985 37.007 17.628 58.42 13.99 19.114-3.248 33.895-13.81 46.32-28.156 5.07 3.645 10.139 7.29 15.392 11.498-12.64 16.5-28.416 27.976-48.307 33.734-25.607 7.412-49.918 4.376-73.197-8.136-2.02-1.086-3.456-3.261-5.163-4.93-1.695-5.144-6.045-6.199-10.63-7.063a50.982 50.982 0 0 1-10.182-3.024c-1.187-1.765-2.15-2.87-3.115-3.977z"/><path fill="#F4E0E0" d="M423.946 409c3.786 8.384 1.986 16.967.885 25.516-.34 2.634-.834 5.249-1.847 8.202-1.767.855-3.036 1.237-4.102 1.931-4.854 3.163-9.499 6.676-14.497 9.584-14.893 8.664-30.79 14.572-47.94 16.997-1.927.272-3.663 1.89-5.825 2.779a147.49 147.49 0 0 0-7.103-1.01c-2.153.01-3.876.019-5.878-.155-1.798-1.928-3.127-3.911-4.903-5.337-1.241-.997-3.094-1.231-4.675-1.806-.026 1.789-.052 3.578-.278 5.666-2.261.285-4.334.4-6.38.217-1.633-.145-3.225-.713-4.853-.985-3.519-.588-7.05-1.108-10.575-1.655-1.176-.3-2.457-1.06-3.509-.819a81.187 81.187 0 0 0-10.017 2.967c-4.274 1.581-7.441-.5-7.07-5.056.13-1.611.628-3.307 1.396-4.727 1.601-2.96 1.641-5.333-.76-8.098-1.51-1.739-1.91-4.441-2.946-7.061-2.821 1.743-5.978 3.63-9.04 5.66-.431.285-.28 1.335-.598 1.926-1.153 2.149-2.2 4.409-3.724 6.269-.406.494-3.24.041-3.469-.552-.803-2.082-.956-4.414-1.542-7.688-.07-.02-1.417-.391-3.427-.873-1.216-.747-1.769-1.384-2.322-2.022.417-.387.834-.774 1.792-1.432 7.287-1.03 12.855-6.286 20.174-5.243 1.57.224 3.408-1.42 5.533-2.2 2.514.407 4.763.46 6.7 1.265 18.406 7.64 37.48 9.431 57.075 6.715 14.44-2.002 28.383-5.948 40.581-14.027 9.75-6.459 18.695-14.133 28.011-21.25 1.675-1.279 3.42-2.467 5.133-3.697z"/><path fill="#F4E4E4" d="M194.1 361.05c-.227.18-.636.536-.655.516-4.044-4.202-8.123-8.373-12.027-12.703-.822-.912-1.162-2.371-1.442-3.64-1.292-5.865-2.085-6.449-8.135-5.662-1.485.193-2.977.52-4.458.487-1.535-.035-4.106-.045-4.371-.755-.537-1.444.012-3.394.438-5.052.228-.888 1.056-1.674 1.74-2.384 5.885-6.109 6.877-11.598 2.596-19.065-2.15-3.748-2.839-7.278-1.702-11.362 3.408-12.246 6.744-24.512 10.227-37.202l8.34 3.209c0-3.33.693-6.233-.13-8.61-2.524-7.29-1.704-13.87 2.134-20.494 1.434-2.473 1.621-5.67 2.844-9.01.735-.527 1.002-.58 1.27-.633 5.322 24.963 11.56 49.63 23.13 72.93-1.176 1.907-2.545 3.27-2.893 4.856-1.095 4.985-2.389 10.036-2.535 15.093-.254 8.782-2.243 17.701 1.179 26.402.26.66 2.002 3.904-1.862 3.84-1.836-1.011-3.405-2.662-4.877-2.58-7.016.396-10.318 5.06-8.812 11.819z"/><path fill="#F6D6D5" d="M394.16 379.545c-12.298 14.673-27.079 25.235-46.193 28.482-21.413 3.639-40.89-1.004-58.42-13.989-11.73-8.688-19.782-20.05-25.097-33.453-.953-2.403-.986-5.17-1.44-8.195a390.357 390.357 0 0 1 29.684 10.578c1.685 6.42 6.31 9.495 10.632 12.823 29.994 23.094 74.809 6.058 81.74-31.107.874-4.687 1.408-9.437 2.1-14.158 8.395 2.957 19.227-.243 25.07-7.217.464-.554 2.002-.208 3.466.117.761 1.58 1.098 2.765 1.434 3.949-1.966 1.41-3.742 3.329-5.93 4.146-11.276 4.21-19.25 11.661-22.447 23.332-2.414 8.812-.598 17.134 5.402 24.692z"/><path fill="#F5DDDC" d="M423.962 408.634c-1.729 1.597-3.474 2.785-5.149 4.065-9.316 7.116-18.26 14.79-28.01 21.249-12.199 8.079-26.141 12.025-40.582 14.027-19.595 2.716-38.67.925-57.075-6.715-1.937-.804-4.186-.858-7.058-1.38-2.848-.997-4.927-1.875-7.076-2.781l2.126-6.258-7.198 3.187c.578-1.032 1.257-2.022 1.706-3.106.501-1.21.794-2.508 1.177-3.767-1.635-.064-3.59-.71-4.82-.037-1.412.772-2.182 2.716-2.57 3.247-4.202-.86-7.894-1.615-12.069-2.784-6.049-6.596-11.615-12.777-17.182-18.959l10.568-2.442c-1.05 7.923-.448 8.96 6.763 8.546 8.249-.473 16.45-1.796 25.085-2.719 2.12 1.7 3.556 3.875 5.577 4.961 23.28 12.512 47.59 15.548 73.197 8.136 19.891-5.758 35.667-17.235 48.559-33.492 6.058 4.243 11.844 8.973 14.031 17.022z"/><path fill="#F5D7D6" d="M277.986 342.05c-10.235-4.696-15.497-13.177-16.898-23.869-3.512-26.798 7.59-47.78 27.841-64.058 19.888-15.987 43.793-11.537 57.453 9.969 3.175 4.998 5.278 10.677 7.513 16.442-1.51.261-2.701.274-3.803-.034-11-3.073-21.951-2.666-32.841.474-5.32 1.534-10.595 3.229-15.857 4.95-.687.226-1.283.975-1.74 1.61-2.584 3.586-5.112 7.211-7.658 10.823l-.91-1.492-6.923-1.343-.557 1.667 5.113 4.071c-.719.662-1.394 1.285-2.424 1.867-2.54.104-4.727.25-6.914.395.144 1.732.022 3.54.496 5.177.691 2.389 1.81 4.654 2.408 7.205-.99 1.698-2.044 3.116-2.22 4.635-.825 7.155-1.409 14.338-2.079 21.51m15.947-62.453.125 2.224 1.416.485 3.647-9.424-8.402-1.203c1.288 3.252 2.075 5.242 3.214 7.918m-.383 10.576-1.97-.306.03.86c.576-.053 1.152-.107 1.94-.554z"/><path fill="#F2E9E9" d="M496.137 328.997c-.504-12.948.293-26.114-1.835-38.79-2.77-16.493-12.433-30.212-22.187-43.57-7.642-10.466-15.548-20.785-22.474-31.716-6.793-10.72-9.583-22.917-9.674-35.642-.012-1.733.374-3.469.746-6.67 3.473 3.223 6.168 5.352 8.42 7.877 10.078 11.297 20.95 22.051 29.692 34.315 5.493 7.708 9.096 17.44 11.144 26.79 5.235 23.902 9.752 48.004 13.374 72.203 3.619 24.181 2.823 48.452-2.626 72.444-2.803 12.336-8.77 22.892-17.446 31.989-6.203 6.505-12.452 12.966-19.12 19.272.189-1.936.562-3.846 1.487-5.435 6.075-10.44 13.285-20.355 18.206-31.303 9.54-21.224 14.208-43.773 14.075-67.157-.008-1.539-1.161-3.072-1.782-4.607z"/><path fill="#F3E7E7" d="M391.973 482.077c-2.86 2.892-5.877 5.655-8.463 8.775-.595.718.042 2.763.546 4.023 1.036 2.59 2.366 5.062 4.026 8.522l2.225-4.855c1.625 4.653 2.187 7.158-1.69 8.448-.91.302-1.8 1.42-2.205 2.373-5.498 12.934-13.777 18.106-27.605 16.548-4.244-.478-8.503-1.703-12.508-3.233-9.061-3.462-14.668-9.576-13.857-20.03.098-1.268-.193-2.565-.315-3.972-4.606-.286-9.883 2.824-12.514-4.012-1.131 1.417-2.36 2.242-2.407 3.127-.423 8.133-6.16 13.824-9.416 20.62-2.785 5.811-6.64 7.285-13.21 6.342-3.622-.52-7.222-1.362-10.858-1.561-3.468-.19-6.972.268-11.287.483 2.154-2.567 4.154-5.429 6.622-7.803 8.04-7.733 16.28-15.255 24.37-22.936 1.798-1.708 3.293-3.734 5.647-5.782 1.385-.147 2.061-.196 2.713-.093 15.33 2.423 30.719 2.82 45.97-.085 9.574-1.824 18.935-4.757 28.398-7.166 2.445-.622 5.417-2.43 5.818 2.267z"/><path fill="#F3E5E4" d="M496.02 329.366c.738 1.166 1.89 2.7 1.9 4.238.132 23.384-4.535 45.933-14.076 67.157-4.921 10.948-12.131 20.862-18.206 31.303-.925 1.589-1.298 3.499-1.798 5.554-9.294 8.859-18.64 17.512-28.218 25.9-1.536 1.346-5.091 2.697-5.985 1.958-1.586-1.313-2.632-4.265-2.52-6.461.37-7.26 1.417-14.48 2.087-21.728.473-5.112.757-10.243 1.585-15.837 1.782-1.588 3.086-2.726 4.43-3.814 2.352-1.905 4.728-3.78 7.093-5.666.701 1.49 1.42 2.972 2.099 4.471 1.565 3.457 4.307 3.985 7.225 2.281 2.242-1.309 4.37-3.125 5.968-5.17 10.83-13.858 19.65-28.509 18.522-47.167-.117-1.936 1.621-4.399 3.167-5.953 8.581-8.626 13.827-18.976 16.728-31.066z"/><path fill="#F6D1D0" d="M386.903 330.32c-.429 4.927-.963 9.677-1.837 14.364-6.931 37.165-51.746 54.2-81.74 31.107-4.323-3.328-8.947-6.404-10.31-12.61 9.76.096 19.653 1.792 29.271.805 23.608-2.423 38.202-16.942 42.516-40.207.417-2.251 2.106-4.246 2.708-6.492.392-1.463-.117-3.166-.224-4.793 4.32-.866 8.35.855 8.43 5.404.137 7.84 5.659 9.633 11.186 12.422z"/><path fill="#F4D9D8" d="M230.806 317.467c2.408-7.488 4.581-14.797 7.524-21.78 6.74-15.995 16.513-29.803 30.02-40.97 13.786-11.395 29.378-18.765 46.885-21.933 23.435-4.242 45.942-1.61 67.378 10.144-3.23 3.954-6.494 8.206-10.454 11.663-6.325 5.524-16.177 5.19-22.422-.392-6.856-6.13-13.731-12.19-23.084-14.178-16.643-3.537-31.74-.332-44.79 10.837-18.729 16.032-28.106 36.85-29.664 61.088-.657 10.207 3.027 19.604 9.927 27.457 2.057 2.342 4.153 4.65 6.598 7.384-8.507-.606-27.76-15.653-37.918-29.32z"/><path fill="#F5D1D0" d="m286.649 303.168 2.07-1.908-5.113-4.07.557-1.668 6.923 1.343.91 1.492c2.546-3.612 5.074-7.237 7.657-10.822.458-.636 1.054-1.385 1.741-1.61 5.262-1.722 10.537-3.417 15.857-4.95 10.89-3.14 21.84-3.548 32.84-.475 1.103.308 2.294.295 3.883.408 5.273 12.309 5.686 25.172 4.563 38.611-2.057-.62-3.98-1.405-5.213-2.8-4.82-5.457-10.753-8.081-17.992-7.86-.13-4.907.354-9.932-.555-14.691-1.004-5.263-7.369-9.438-11.796-8.845-5.137.688-9.828 5.909-9.118 11.902.56 4.734 2.717 9.385 4.757 13.8 1.279 2.77 3.652 5.035 5.62 7.64-10.286 10.73-22.011 18.943-35.951 23.598-2.962.989-6.48.312-10.022.095.39-7.481.973-14.664 1.799-21.82.175-1.518 1.23-2.936 2.564-4.59 7.052-1.423 8.472-6.787 4.019-12.78z"/><path fill="#F2E3E2" d="M391.958 482.45c-.386-5.07-3.358-3.262-5.803-2.64-9.463 2.41-18.824 5.342-28.398 7.166-15.251 2.905-30.64 2.508-45.97.085-.652-.103-1.328-.054-2.43-.083-.663-3.457-2.99-3.158-4.954-2.094-3.719 2.013-6.901 1.436-10.64-1.6 7.121-2.183 8.403-8.804 11.927-14.137 3.81.344 7.341.864 10.86 1.452 1.628.272 3.22.84 4.854.985 2.045.183 4.118.068 6.725-.116 3.109.9 5.65 2.056 8.264 3.01.293.107 1.006-.94 1.524-1.451 1.724-.01 3.447-.018 5.587.374 1.174 1.733 1.93 3.065 2.687 4.397 1.729-1.047 5.359.365 4.767-3.685 1.824-.993 3.56-2.61 5.486-2.883 17.15-2.425 33.048-8.333 47.94-16.997 5-2.908 9.644-6.421 14.498-9.584 1.066-.694 2.335-1.076 3.885-1.6-.104 7.128-.39 14.276-1.126 21.377-.518 4.997-2.546 5.82-6.934 3.402-4.354-2.399-5.58-1.806-5.802 3.192-.317 7.078.006 14.213-.763 21.233-.492 4.49-2.344 8.858-3.857 13.187-.335.957-1.701 1.831-2.778 2.194-2.047.69-4.227.982-6.447 1.46 0-.029.009-.468 0-.907-.114-5.209.01-10.213 7.476-9.49.298.029.743-.638.99-1.057.57-.973 1.062-1.993 1.595-3.886-5.213 3.897-9.69 4.181-13.647-1.14-2.664-3.583-.657-6.582.484-10.164z"/><path fill="#F3DDDC" d="M208.1 351.97c3.552-.095 1.81-3.339 1.55-3.999-3.422-8.701-1.433-17.62-1.179-26.402.146-5.057 1.44-10.108 2.535-15.093.348-1.587 1.717-2.95 2.997-4.507 7.252 11.66 14.326 23.265 24.76 32.77-.455 2.794-1.813 5.383-1.51 7.761 1.839 14.432 5.677 28.304 13.022 41.008 2.465 4.264 5.14 8.41 7.745 12.97-3.995-2.203-7.462-1.203-10.639 1.964-1.872 1.867-3.815 3.665-5.855 5.618-5.403-2.847-10.705-5.571-9.886-14.323-2.534 2.005-3.724 3.507-5.249 4.025-2.478.843-5.697 2.133-7.633 1.207-1.942-.929-3.797-4.37-3.733-6.656.118-4.159-1.572-6.542-4.919-9.154-.147-1.495-.127-2.305.293-3.13 1.686.693 2.997 1.358 4.253 2.114 1.237.745 2.419 1.581 3.625 2.377-2.396-5.61-1.53-10.36-.15-15.29.383-1.372-.685-3.15-1.087-4.741-1.273.42-2.587.749-3.809 1.285-1.483.65-2.889 1.476-4.323 1.871 3.988-4.433 2.182-8.096-.808-11.674z"/><path fill="#F4E0E0" d="M431.146 283.995c2.362-8.08 4.618-16.193 7.12-24.228 1.766-5.67 3.834-11.248 5.857-16.835.256-.706 1.154-1.152 1.587-1.826 1.899-2.955 3.737-5.95 6.148-9.815 2.951 3.606 6.253 7.02 8.689 10.968.809 1.311-.357 4.084-1.049 6.037-3.424 9.662-7.808 19.065-10.334 28.947-4.914 19.225-3.616 38.212 5.438 56.234 3.934 7.831 8.248 15.473 12.13 23.329 4.748 9.607 5.33 19.809.98 29.432-3.664 8.11-8.9 15.532-13.73 23.074-1.03 1.609-3.307 2.419-5.01 3.597-.721-1.886-2.197-3.836-2.043-5.647 1.018-11.901 2.066-23.818 3.731-35.641 1.674-11.876.897-23.048-6.416-33.814.196-2.501.9-4.353.656-6.069-1.3-9.143-2.082-18.462-4.534-27.308-1.974-7.116-6.067-13.645-9.22-20.435z"/><path fill="#F3F1F1" d="M164.157 165.934c.097-1.965-.333-4.147.374-5.86 7.466-18.085 20.221-30.449 39.792-34.146 14.454-2.731 26.337 4.68 31.411 18.514 1.25 3.408 1.803 7.07 2.276 11.097-10.044 4.423-18.878 9.63-26.609 16.847-6.202-3.14-2.358 2.514-4.021 3.677-2.489 1.03-4.637 1.992-6.807 2.566-.548-1.185-.893-2.309-1.634-2.72-2.624-1.46-5.383-2.676-8.09-3.984 2.15-1.092 4.125-.816 5.967-1.19 1.19-.243 2.185-1.439 3.267-2.207-1.083-.511-2.12-1.266-3.26-1.483-2.428-.462-4.91-.645-7.37-.942l.124-.703 9.385-1.864c-1.281-2.053-2.2-3.215-2.789-4.526-2.37-5.277-4.202-6.249-9.472-4.047-2.382.995-4.414 2.826-6.613 4.263-1.37.897-2.94 2.71-4.107 2.485-4.93-.947-8.1 2.272-11.824 4.223z"/><path fill="#F2E1E1" d="M481.79 275.276c3.398 10.922 7.453 21.342 9.645 32.14 2.726 13.427-6.65 38.98-16.769 47.89l-13.62-28.584c7.622 3.404 8.155 3.326 11.173-2-5.648-.088-6.27-.995-3.28-5.71 5.23-8.252 2.94-16.777.536-24.977-.74-2.522-4.956-5.966-7.088-5.651-2.698.398-5.065 4.059-7.226 6.608-.91 1.074-.928 2.903-1.352 4.388l-1.374-.172c0-2.833-.652-5.857.111-8.467 3.666-12.544 7.61-25.01 11.684-37.43 1.39-4.24 3.564-2.565 5.083.035 4.18 7.154 8.216 14.39 12.478 21.93z"/><path fill="#F3EBEB" d="M211.718 172.594c7.414-7.425 16.248-12.632 26.274-16.637 2.72 13.25-1.87 25.21-7.634 36.61-7.594 15.017-20.49 24.452-35.56 31.272-1.608.727-2.617 2.777-3.967 4.533-.33.371-.597.424-1.267.548-1.63-.758-2.76-1.83-4.103-2.373-4.612-1.866-9.299-3.546-14.141-5.875 2.377-4.346 4.786-8.232 7.585-11.814.954-1.221 2.888-1.677 4.446-2.163 2.77 1.921 5.42 3.617 8.196 5.072.987.517 2.281.446 3.436.644.028-1.225.515-2.715-.008-3.62-1.13-1.956-2.778-3.611-3.981-5.102 2.102-1.043 5.143-1.543 6.2-3.263 3.638-5.912 8.322-11.939 3.582-19.524-.3-.479-.132-1.25-.182-1.886 2.149-.961 4.297-1.923 6.934-2.578 1.78.767 3.071 1.228 5.073 1.943l-.883-5.787z"/><path fill="#F5CBCA" d="M335.193 309.174c7.378-.536 13.312 2.088 18.13 7.545 1.233 1.395 3.157 2.18 5.112 3.26-2.924 26.569-19.309 39.799-47.691 38.44-7.28-.349-14.542-1.414-21.76-2.495-2.842-.426-5.543-1.793-8.309-2.732l-.027-1.326c1.737-.67 3.43-1.508 5.22-1.982 14.698-3.888 28.54-9.642 38.414-21.646 4.515-5.489 7.236-12.454 10.91-19.064z"/><path fill="#262626" d="M200.573 178.629c.071 1.023-.097 1.794.203 2.273 4.74 7.585.056 13.612-3.581 19.524-1.058 1.72-4.1 2.22-6.201 3.263 1.203 1.49 2.851 3.146 3.98 5.101.524.906.037 2.396.009 3.62-1.155-.197-2.45-.126-3.436-.643-2.776-1.455-5.426-3.15-8.204-5.08-.079-.328-.052-.324.307-.32 1.002-.785 1.644-1.577 2.393-2.738-.231-3.337-.571-6.304-.911-9.271-2.436 5.803-3.033 5.866-7.308 2.16-1.82-1.578-4.382-2.298-6.948-3.577.218-.935.62-2.346.87-3.785 1.08-6.25-1.25-12.339-6.021-13.847-2.985-.944-4.96-2.147-5.676-5.178 1.134-1.359 2.267-2.718 3.754-4.137 4.079-2.011 7.248-5.23 12.178-4.283 1.168.225 2.736-1.588 4.107-2.485 2.2-1.437 4.23-3.268 6.613-4.263 5.27-2.202 7.101-1.23 9.472 4.047.589 1.31 1.508 2.473 2.79 4.526l-9.386 1.864-.123.703c2.46.297 4.94.48 7.369.942 1.14.217 2.177.972 3.26 1.483-1.082.768-2.077 1.964-3.267 2.207-1.842.374-3.817.098-5.967 1.19 2.707 1.308 5.466 2.524 8.09 3.983.74.412 1.086 1.536 1.634 2.72z"/><path fill="#F0E8E8" d="M490.643 455.335c-3.449 4.609-6.564 5.287-7.482 1.89-.607-2.249-.377-4.723-.552-7.601-9.845 8.315-19.976 13.824-34.032 13.915 1.706-2.728 2.387-4.35 3.52-5.54 6.085-6.39 12.082-12.882 18.482-18.946 12.94-12.26 26.222-24.186 32.672-41.558 6.56 4.491 10.194 18.649 6.069 24.832-1.353 2.028-4.347 3.415-6.86 4.083-2.433.647-3.666 1.346-4.096 3.96-.424 2.577-1.342 5.15-2.484 7.513-1.48 3.062-3.524 5.178-6.674.272l-4.947 9.612c1.968 3.025 7.836 1.907 6.384 7.568z"/><path fill="#F2E9E9" d="M534.96 372.13c-2.534-.713-5.055-1.472-7.602-2.13-6.493-1.675-10.232.762-11.385 7.353-.17.972-.069 2.33-.664 2.826-1.662 1.388-3.623 2.418-5.466 3.589-.539-1.7-1.61-3.424-1.533-5.095.739-16.083 1.768-32.152 2.467-48.237.14-3.218 1.136-4.665 4.33-4.435 9.932.715 19.879 1.287 29.785 2.27 2.222.222 4.3 1.896 6.443 2.9l-.151 1.814c-2.914.403-5.821 1.073-8.745 1.154-5.726.158-10.75 1.195-14.09 6.632-2.14 3.482-2.021 5.828 1.899 7.48 2.438 1.028 4.897 2.007 7.514 3.678-.822 7.18-1.812 13.69-2.802 20.2z"/><path fill="#F3DDDC" d="M442.333 411.503c-2.386 2.354-4.762 4.228-7.113 6.133-1.345 1.088-2.65 2.226-4.3 3.368-.374-.134-.471-.298-.46-.453 1.308-17.518-7.94-28.715-22.277-37.628 2.413-5.247 4.982-9.827 7.55-14.407 10.041 1.67 19.68.033 28.684-4.448-.714 16.253-1.39 31.61-2.084 47.435z"/><path fill="#F0E8E8" d="M142.11 261.826c.233-3.605.437-6.758.716-9.904.762-8.608-1.315-16.403-6.16-23.605-3.127-4.65-2.918-6.373.586-10.229 1.993 4.392 3.888 8.466 5.696 12.578 2.469 5.612 4.494 11.458 7.4 16.83 3.53 6.523 8.128 11.703 16.965 10.171 3.95-.684 6.459 2.766 5.706 6.641-.095.488-.217.973-.366 1.446-3.769 12.014-7.543 24.025-11.49 36.59-4.948-3.954-10.573-6.828-11.076-14.632-.255-3.956-2.768-7.733-4.024-11.666-1.451-4.545-2.643-9.173-3.953-14.22m10.525 14.706-4.214-13.317-2.292.685 4.305 16.333 1.6-.238c.229-.895.457-1.79.6-3.463z"/><path fill="#F4EDED" d="M124.176 389.13c3.573-1.173 6.857-2.105 10.15-2.999 2.62-.71 5.252-1.375 7.295-1.907l27.302 20.638c-3.69 2.008-7.09 3.577-10.197 5.6-10.853 7.07-31.199 1.288-36.693-10.539-1.837-3.954-1.04-7.427 2.143-10.794zM159.96 170.516c.805 2.646 2.78 3.85 5.765 4.793 4.77 1.508 7.101 7.596 6.02 13.847-.249 1.439-.651 2.85-.87 3.785 2.567 1.28 5.13 1.999 6.949 3.576 4.275 3.707 4.872 3.644 7.308-2.16.34 2.968.68 5.935.555 9.294-1.108 1.164-1.752 1.938-2.396 2.712 0 0-.027-.004-.019.004-1.479.814-3.413 1.27-4.367 2.491-2.799 3.582-5.208 7.468-7.837 11.562-12.74-8.63-17.995-25.03-13.151-39.89 1.008-3.093 1.32-6.414 2.042-10.014z"/><path fill="#F0EBEB" d="M476.562 191.446c6.721 7.586 11.64 8.486 20.17 3.502 3.264-1.907 6.597-4.003 9.133-6.726 1.377-1.479 1.448-4.444 1.539-6.76.066-1.693-.799-3.421-1.625-6.57 1.693 1.451 2.847 1.981 3.248 2.856 4.009 8.735 3.855 17.729.893 26.648-3.492 10.512-15 14.651-23.01 7.213-7.429-6.898-13.045-15.755-19.38-23.812-.52-.66-.43-1.799-.622-2.715l1.099-.953c2.77 2.353 5.54 4.707 8.555 7.317z"/><path fill="#F0D3D3" d="M415.399 368.329c-2.234 4.767-4.803 9.347-7.386 14.303-1.37-.56-2.724-1.495-4.079-2.43-6.948-4.796-12.103-10.611-10.552-19.853 1.794-10.685 7.76-18.439 17.8-22.297 10.475-4.025 20.562-2.774 29.41 4.704.573.483.927 1.225 1.252 1.668-8.182-.525-16.26-1.548-24.316-1.403-6.63.119-12.438 2.933-16.097 9.069-2.098 3.517-2.14 7.019 1.165 9.328 3.845 2.686 8.286 4.52 12.803 6.91z"/><path fill="#F2DADA" d="M431.037 284.403c3.262 6.382 7.355 12.91 9.329 20.027 2.452 8.846 3.233 18.165 4.534 27.308.245 1.716-.46 3.568-.794 5.749-2.491-1.333-4.731-3.45-7.38-4.7-5.124-2.417-9.046-5.19-6.05-12.183l-1.354-.551c-3.855 2.33-7.709 4.66-11.874 7.156-.648-1.018-.985-2.202-1.383-3.75 4.07-2.76 8.202-5.154 10.866-6.699.761-2.804 1.16-4.367 1.614-5.914.374-1.279 1.093-2.522 1.177-3.812.482-7.402.82-14.814 1.315-22.631z"/><path fill="#EDEDED" d="M535.23 372.277c.72-6.658 1.71-13.169 2.78-20.097 21.862 6.867 41.42 17.823 57.27 34.714 1.857 1.979 3.413 4.718 3.91 7.332.347 1.829-.79 5.067-2.253 5.868-2.703 1.48-4.532-.704-5.295-3.473-2.509-9.109-7.189-16.828-14.969-22.34-8.656-6.133-18.156-10.262-28.856-11.29-3.008-.29-4.783.61-5.883 3.702-1.01 2.837-2.451 5.904-6.704 5.584z"/><path fill="#F2DADA" d="M239.827 408.676c5.922 6.128 11.488 12.309 17.115 18.829-5.086.076-10.571.839-15.29-.72-5.36-1.773-9.992-5.698-15.026-8.535-2.799-1.577-5.895-2.643-8.631-4.31a47.918 47.918 0 0 1-7.642-5.812c-.564-.524.087-2.356.18-3.587 1.32.275 2.763.31 3.913.909.76.395 1.193 1.557 1.611 2.45 1.926 4.12 5.297 5.42 9.46 4.506 4.695-1.031 9.307-2.435 14.31-3.73z"/><path fill="#F3F1F1" d="M77.023 283.86c-.929-6.106-.223-11.658 4.468-15.35 2.276-1.792 5.926-2.673 8.893-2.545 3.955.17 6.054 3.684 6.277 7.286.218 3.53-.329 7.27-1.356 10.67-1.326 4.388-4.372 7.418-9.384 7.566-5.016.149-7.41-2.978-8.898-7.626z"/><path fill="#F0EBEB" d="M550.133 403.8c4.256 2.087 8.67 3.478 10.396 7.807l-.872 1.141c-.69-.267-1.528-.366-2.045-.826-5.616-4.996-6.147-5.013-12.071-.518-2.637 2-5.176 4.244-8.085 5.745-6.255 3.227-11.349.876-13.693-5.734-.458-1.291-1.62-2.333-2.471-3.51 3.623-7.758 14.7-9.42 28.84-4.106z"/><path fill="#F4E4E4" d="M258.597 449.038c.903.47 1.456 1.107 2.295 1.892-.06 3.668 1.153 7.277-1.12 10.755-.577.885 1.338 3.516 2.286 5.246.963 1.757 2.147 3.392 3.234 5.08l-1.08 1.229-4.476-1.97-2.142 5.714c-1.696.242-4.445.736-7.214 1.007-5.664.553-10.011-3.142-10.383-8.7-.334-4.976 5.074-12.209 9.548-11.532 6 .907 8.362-.85 7.803-6.813-.052-.547.583-1.159 1.249-1.908z"/><path fill="#F0E8E8" d="M489.525 468.09c-5.737 1.336-9.424 4.033-11.347 9.658-.817 2.389-4.142 4.792-6.741 5.39-1.715.395-4.703-2.024-6.102-3.93-.94-1.28-.778-4.239.072-5.805 3.473-6.397 9.422-9.715 16.437-9.231 7.53.52 14.987 2.352 22.416 3.898 1.336.278 2.425 1.906 3.502 3.032.12.126-.646 1.548-.907 1.52-1.706-.19-3.936-.05-4.975-1.062-3.464-3.378-7.468-4.021-12.355-3.47z"/><path fill="#E1D3D3" d="M258.343 446.684c-4.965 2.352-9.903 4.762-14.904 7.034-3.168 1.44-6.46 2.602-7.714 6.377-.144.432-1.248 1-1.603.84-5.593-2.55-10.213 1.247-15.233 2.27-13.454 2.744-26.884 5.603-40.336 8.358-.872.179-1.845-.136-2.856-1.052 6.568-1.167 13.145-2.28 19.7-3.51 17.061-3.2 33.433-8.472 48.559-17.078 3.112-1.771 5.365-5 8.207-7.319 1.555-1.269 3.796-3.191 5.24-2.836 5.541 1.363 8.745-2.914 13.341-3.84-3.915 4.03-8.158 7.393-12.4 10.756z"/><path fill="#F0E8E8" d="M179.09 413.86c1.71 2.98 3.518 5.668 4.302 8.628.523 1.974.323 5.037-.905 6.323-1.192 1.248-4.114.813-6.264 1.183-1.659.286-3.71.176-4.863 1.123-2.366 1.942-4.687 4.652-7.692 2.575-1.849-1.277-3.81-4.573-3.387-6.43.591-2.585 3.253-4.777 5.247-6.936 1.376-1.49 2.945-3.021 4.743-3.855 2.682-1.243 5.641-1.887 8.819-2.61z"/><path fill="#F4D9D8" d="M436.928 350.9c2.022 1.225 3.625 2.378 5.228 3.532-1.48 1.805-2.631 4.64-4.499 5.24-9.059 2.903-18.28 2.256-27.325-.402-1.171-.344-2.933-2.237-2.734-2.926.385-1.338 1.76-2.824 3.09-3.385 8.34-3.517 17.025-3.689 26.24-2.06z"/><path fill="#F3E5E4" d="M199.892 430.1c3.102 3.887 5.978 7.498 8.855 11.11l-.365 1.208-11.858-1.67c-.74 1.109-1.527 3.442-3.132 4.384-1.716 1.008-5.676 1.53-6.077.815-1.212-2.157-2.466-6.148-1.378-7.392 3.301-3.778 3.676-7.63 3.197-12.188-.165-1.566 1.074-3.28 2.088-6.073 3.275 3.696 5.86 6.613 8.67 9.805z"/><path fill="#F0D3D3" d="M400.91 259.487c.594 8-3.735 11.954-10.701 13.997-5.295-3.109-7.83-7.24-6.822-11.534 1.139-4.854 4.931-8.886 8.872-8.996 4.286-.12 7.29 1.903 8.65 6.533z"/><path fill="#F2E1E1" d="M207.907 433.096c-3.93-5.2-7.64-10.12-11.51-15.248 6.533-2.93 15.26-.452 19.78 4.757 2.853 3.287 2.229 8.977-2.995 18.337-1.942-2.905-3.5-5.235-5.275-7.846z"/><path fill="#262626" d="M207.788 351.811c3.302 3.738 5.108 7.4 1.15 11.829.025.348.076.312-.207.3-.444.318-.605.648-1.062 1.145-1.915 1.901-3.535 3.636-5.236 5.456l-4.454-3.606s.066.025.006-.287c-.73-.431-1.4-.55-2.07-.67-.288-.484-.575-.967-.857-2.106-.357-1.413-.72-2.169-1.084-2.925 0 0 .08.03.103.067-1.484-6.723 1.818-11.387 8.834-11.782 1.472-.083 3.041 1.568 4.877 2.58z"/><path fill="#EBDDDC" d="M197.6 367.154c1.718.865 3.057 1.95 4.833 3.387 1.7-1.82 3.321-3.555 5.346-5.255.573.295.785.514.924.999-1.736 2.071-3.357 3.835-5.228 5.871l6.525 3.887c-.02.81-.041 1.621-.086 2.837-2.422-1.035-4.818-2.476-7.209-3.913-6.403 9.499-5.539 18.721 1.91 28.836 1.207 1.64.608 4.99.04 7.357-.21.876-2.812 1.76-4.181 1.577-.974-.13-1.944-1.931-2.517-3.17-5.39-11.656-3.34-22.766 1.895-33.98.893-1.913-1.666-5.436-2.251-8.433zM290.006 487.851c2.61 1.291 4.964 2.259 7.82 3.432.768 2.469.615 5.309-2.882 6.707-3.206 1.283-4.691-1.043-6.377-3.277-1.12-1.486-2.939-2.457-4.485-3.605-.651-.484-1.73-.656-2.057-1.268-1.333-2.498-2.45-5.11-3.647-7.68l6.965-2.31-.49-.626c3.288-2.008 6.502-4.16 9.923-5.905.716-.365 2.197.77 3.325 1.213-.736 1.141-1.307 2.455-2.263 3.363-.647.615-1.884.556-2.774.976-3.845 1.812-5.86 4.375-3.058 8.98z"/><path fill="#EDEDED" d="M500.007 159.012c1.64 2.915 3.121 5.51 4.493 8.16.35.676.353 1.533.798 3.652-2.065-1.973-3.687-2.844-4.24-4.163-3.083-7.351-10.416-9.43-16.255-13.302-1.036-.687-2.962-.057-4.476.008-1.233.053-2.977.695-3.56.123-.686-.672-.605-2.41-.421-3.62.326-2.152.98-4.255 1.679-7.128 9.978 1.098 16.24 8.008 21.982 16.27zM474.01 536.915c-2.51 3.371-5.978 4.81-8.822 2.564-1.693-1.338-1.665-5.097-1.988-7.818-.14-1.178.58-2.61 1.261-3.708 1.848-2.98 3.81-6.401 8.136-4.391 4.118 1.914 5.372 6.524 3.294 10.577-.45.879-1.11 1.65-1.88 2.776z"/><path fill="#E4E4E4" d="M79.248 384.964c-3.592-10.851-7.01-21.765-10.862-32.524-1.486-4.15-4.16-7.86-5.873-11.948-.67-1.6-.188-3.685-.23-5.549 1.86.957 4.627 1.454 5.392 2.965 1.617 3.195 2.23 6.908 3.182 10.428 3.112 11.517 6.19 23.042 9.169 35.18-.336.894-.557 1.171-.778 1.448z"/><path fill="#F0E8E8" d="M145.15 324.222c-3.345 2.631-6.48 4.373-9.813.665-2.635-2.93-2.503-7.814.45-10.83 2.585-2.64 5.611-3.58 8.87-1.171 3.267 2.417 3.465 6.287.494 11.336z"/><path fill="#F2E3E2" d="M161.912 353.198c.586 2.306.97 4.26 1.622 6.12 1.436 4.104.362 7.535-3.652 8.83-1.622.522-4.536-1.032-6.041-2.49-2.873-2.78-2.56-6.284-.279-9.446 1.953-2.705 4.116-5.259 6.339-8.074.58 1.404 1.256 3.035 2.011 5.06z"/><path fill="#EDEDED" d="M108.44 345.727c.385 1.95 1.622 4.314.93 5.742-.775 1.598-3.299 2.347-5.81 3.94l-.39-5.911c-.962.066-1.975.423-2.743.134-2.317-.872-5.098-1.504-6.592-3.202-.926-1.052-.421-4.182.459-5.838 2.065-3.887 5.461-3.878 8.316-.498 1.67 1.976 3.506 3.811 5.592 5.68.325-.029.238-.047.238-.047zM95.552 364.307c-.774-1.563-1.938-3.216-1.531-4.255.738-1.888 2.41-3.411 3.507-4.842 2.455.772 4.665.998 6.285 2.096 1.986 1.345 4.986 3.56 4.837 5.145-.235 2.495-2.388 5.186-4.457 6.927-.726.61-3.688-1.178-5.463-2.167-1.113-.62-1.917-1.793-3.178-2.904z"/><path fill="#343434" d="M258.889 446.83c3.697-3.509 7.94-6.872 12.147-10.591-.036-.357-.02-.288.136-.104.436-.021.717-.226 1.316-.572.724-.64 1.128-1.139 1.533-1.637 0 0 .006.088-.037.095 2.121-.952 4.286-1.91 7.154-3.18l-2.126 6.258c2.149.906 4.228 1.784 6.666 2.777-1.357.9-3.194 2.543-4.765 2.32-7.319-1.044-12.887 4.213-20.005 5-.739-.052-1.106-.135-2.019-.365z"/><path fill="#EDEDED" d="M89.312 314.676c6.633 1.835 8.745 7.827 4.532 12.402-1.81 1.964-3.999 4.503-7.196 2.013-3.05-2.376-5.656-5.128-2.76-9.181 1.384-1.938 3.365-3.45 5.424-5.234z"/><path fill="#F5CBCA" d="M319.928 298.937c1.32-2.6 2.658-4.781 3.996-6.963 1.918 1.79 4.796 3.25 5.552 5.442 1.521 4.41 1.662 9.167-3.124 13.014-3.808-2.797-5.982-6.381-6.424-11.493z"/><path fill="#F2DADA" d="M465.21 304.02c.256 5.953-2.763 9.762-7.038 13.547-1.438-1.806-2.968-3.476-4.206-5.34-1.625-2.45-2.76-4.683 1.787-5.606 1.5-.304 2.768-2.48 3.83-4.016 1.088-1.574 1.793-3.413 4.023-5.2.527 2.06 1.054 4.118 1.605 6.616z"/><path fill="#EDEDED" d="M587.754 483.002c-1.05-1.811-2.601-3.617-2.318-5.065.553-2.834 1.745-5.788 3.55-7.963.46-.554 4.684 1.116 6.35 2.659 3.1 2.869 1.337 5.947-1.274 8.054-1.612 1.3-3.962 1.686-6.308 2.315z"/><path fill="#EBDDDC" d="M173.112 232.861c.82-1.447 1.717-3.39 2.56-3.368 2.558.069 5.094.899 8.378 1.587l-4.513 14.215-1.687.107c-1.562-4.046-3.124-8.092-4.738-12.54z"/><path fill="#EDEDED" d="M89.662 244.898c2.284-1.762 4.42-3.168 6.557-4.573 1.15 2.355 3.097 4.655 3.266 7.079.254 3.653-2.315 5.958-6.088 5.408-4.398-.642-4.748-3.919-3.735-7.914z"/><path fill="#F2E3E2" d="M150.008 335.899a625.672 625.672 0 0 0-3.352-4l.36-1.407c3.185.366 7.433-.383 9.284 1.382 2.282 2.175 2.569 6.443 3.718 9.806l-2.135 1.368c-2.55-2.287-5.101-4.574-7.875-7.15z"/><path fill="#F0D3D3" d="M390.837 299.941c-2.725 3.053-5.104 2.516-7.28-.12-2.42-2.931-2.807-6.16-.039-8.879.84-.825 4.234-.741 4.543-.12 1.366 2.74 2.031 5.827 2.776 9.12z"/><path fill="#F2E3E2" d="M382.08 544.848c-.769 2.749-2.152 3.154-3.39 1.057-1.416-2.397-3.225-4.254-.429-7.913 3.575-4.68 5.196-10.85 8.163-17.51-1.589 8.894-2.934 16.424-4.343 24.366z"/><path fill="#EBDDDC" d="M413.788 495.949c2.145-5.887 5.142-7.822 7.84-5.238 1.135 1.087 2.28 3.477 1.813 4.616-.699 1.705-2.734 3.794-4.353 3.933-1.664.142-3.511-1.862-5.3-3.311z"/><path fill="#BDBDBD" d="M156.154 469.03c4.147.369 7.854.75 11.572.942 2.669.139 5.35.027 7.945.91-11.81 1.707-23.282.452-34.367-3.946l.202-1.297c2.318.576 4.63 1.177 6.955 1.72 2.412.564 4.838 1.07 7.693 1.671z"/><path fill="#F0EBEB" d="M530.345 421.647c1.607 1.128 2.884 2.069 4.522 3.276-3.692 3.522-7.327 2.777-10.79 1.317-1.066-.45-1.58-2.206-2.346-3.364 1.148-.735 2.235-1.924 3.46-2.09 1.55-.211 3.212.411 5.154.861z"/><path fill="#E4E4E4" d="M132.36 334.768c1.827-2.224 3.926-3.776 5.904-1.474.936 1.088.905 3.768.239 5.241-.574 1.27-2.67 1.852-4.094 2.738-.75-2.06-1.498-4.12-2.05-6.505z"/><path fill="#EBDDDC" d="M178.588 407.204c-.591-2.535-.922-4.81-1.254-7.083l2.09-.826 6.11 10.13-1.271 1.37c-1.805-1.11-3.61-2.22-5.675-3.591z"/><path fill="#E4E4E4" d="M581.913 338.422c-.94 1.538-1.933 2.682-2.926 3.825-1.354-1.454-3.194-2.713-3.881-4.433-.429-1.071.887-2.84 1.42-4.296 1.468.743 3.026 1.356 4.361 2.288.566.394.663 1.46 1.026 2.616zM108.514 345.705c.416-1.299.503-2.932 1.363-3.718 1.047-.955 2.746-1.195 4.163-1.745l3.38 9.424c-3.553-1.978-5.824-3.241-8.537-4.222-.443.283-.356.301-.37.26zM271.912 547.744c3.95 2.936 7.361 6.608 8.872 11.66-5.265-2.02-7.505-6.332-8.872-11.66z"/><path fill="#EDEDED" d="M554.8 438.998c1.098-1.522 2.225-2.634 3.352-3.745.995 1.326 2.596 2.57 2.79 4.005.156 1.142-1.407 2.517-2.208 3.788-1.302-1.212-2.604-2.425-3.935-4.048z"/><path fill="#EBDDDC" d="M240.288 436.493c-1.663-.418-2.992-.999-4.322-1.58 1.364-1.719 2.607-3.565 4.181-5.063.365-.347 1.86.494 2.835.788-.787 1.897-1.574 3.795-2.694 5.855z"/><path fill="#E1D3D3" d="M402.731 301.146c-1.53.832-2.887 1.328-4.244 1.823-.344-1.655-1.143-3.396-.855-4.932.16-.855 2.133-1.37 3.288-2.038.662 1.604 1.323 3.207 1.811 5.147z"/><path fill="#EBDDDC" d="M410.47 511.032c-1.233 1.572-2.47 2.78-3.706 3.988-.853-1.124-2.33-2.221-2.377-3.378-.046-1.102 1.456-3.236 2.176-3.193 1.34.079 2.606 1.41 3.907 2.583z"/><path fill="#E1D3D3" d="M79.295 385.33c.174-.643.395-.92.748-1.43 2.222 5.632 4.312 11.497 6.402 17.361l-1.307.46c-1.932-5.341-3.863-10.683-5.843-16.39z"/><path fill="#E4E4E4" d="M139.83 200.927c1.07-1.547 2.16-2.693 3.25-3.838.94 1.028 2.467 1.966 2.643 3.112.149.965-1.286 3.087-1.992 3.075-1.304-.023-2.589-1.233-3.9-2.35z"/><path fill="#EBDDDC" d="M221.328 514.049c1.215-1.312 2.386-2.364 3.726-3.116.148-.082 1.873 1.632 1.783 2.385-.128 1.08-1.233 2.857-1.953 2.872-1.17.026-2.365-1.134-3.556-2.141zM273.551 474.304c-1.786.202-3.396.323-4.845-.101-.355-.104-.641-2.366-.146-2.976.67-.827 2.882-1.648 3.112-1.372.971 1.168 1.454 2.742 1.88 4.45z"/><path fill="#E1D3D3" d="M441.243 537.135c-1.365.358-2.504.46-3.644.564-.08-1.095-.626-2.513-.139-3.214.846-1.217 2.33-1.991 3.546-2.951l1.21.868c-.25 1.493-.498 2.985-.973 4.733z"/><path fill="#E4E4E4" d="M462.625 153.66c2.23-.251 4.207-.251 6.185-.251l.192 2.013-8.12 2.148c.812-1.992 1.151-2.826 1.743-3.91z"/><path fill="#F2E3E2" d="M390.815 516.924c-1.184 1.767-2.171 3.21-3.158 4.653l-1.385-.905 7.461-11.99 1.757 1.068c-1.493 2.284-2.986 4.568-4.675 7.174z"/><path fill="#E4E4E4" d="M562.675 316.513c-1.35-.148-2.344-.197-3.274-.467-.554-.161-1.461-.734-1.422-1.01.142-1.009.616-1.97.965-2.949 1.838.81 3.677 1.62 5.515 2.428-.467.668-.934 1.335-1.784 1.998z"/><path fill="#EBDDDC" d="M514.378 416.781c-.235-1.818-.14-3.444-.046-5.071l4.768.901.45 1.723c-1.614.88-3.228 1.76-5.172 2.447z"/><path fill="#E4E4E4" d="M393.597 543.671c.157.908.303 1.917.005 2.072-1.422.74-2.966 1.248-4.466 1.838-.35-.973-.698-1.947-1.047-2.92 1.764-.428 3.527-.855 5.508-.99z"/><path fill="#F3DDDC" d="M259.111 398.303c.938.777 1.902 1.883 2.878 3.343-.943-.768-1.898-1.89-2.878-3.343z"/><path fill="#F4E4E4" d="M193.603 361.156c.735.547 1.098 1.303 1.421 2.428-.624-.494-1.208-1.356-1.421-2.428z"/><path fill="#F3E7E7" d="M272.105 525.765c.226-.414.46-.5.693-.586l-.071 1.18c-.205-.089-.41-.177-.622-.594z"/><path fill="#E1D3D3" d="M272.17 435.705c-.281.204-.562.409-1.034.428-.065-.715.061-1.245.58-1.493.412.543.433.804.453 1.065z"/><path fill="#EBDDDC" d="M196.061 366.36c.524-.263 1.194-.143 1.935.321-.549.25-1.169.157-1.935-.32z"/><path fill="#F5DDDC" d="M272.488 435.563c-.34-.12-.36-.38-.427-1.032.458-.726.963-1.063 1.714-1.003-.159.896-.563 1.395-1.287 2.035z"/><path fill="#343434" d="M337.639 472.844c-.24.694-.953 1.74-1.246 1.634-2.615-.954-5.155-2.11-8.064-3.309-.32-1.89-.294-3.68-.268-5.468 1.58.575 3.434.81 4.675 1.806 1.776 1.426 3.105 3.409 4.903 5.337zM350.62 474.009c.93 4.154-2.7 2.742-4.43 3.789-.756-1.332-1.512-2.664-2.255-4.397 2.124-.1 4.236.202 6.685.608zM286.295 303.127c4.807 6.034 3.387 11.398-3.325 12.588-1.282-2.362-2.402-4.627-3.093-7.016-.474-1.637-.352-3.445-.496-5.177 2.187-.146 4.374-.291 6.914-.395zM293.758 279.253c-.964-2.333-1.751-4.323-3.039-7.575l8.402 1.203-3.647 9.424-1.416-.485c-.042-.741-.083-1.482-.3-2.567z"/><path fill="#F5D1D0" d="M293.444 290.37c-.682.25-1.258.303-1.834.357l-.03-.861c.657.102 1.313.204 1.864.503z"/><path fill="#262626" d="M210.4 376.03c-2.37-1.161-4.341-2.335-6.925-3.874 1.871-2.036 3.492-3.8 5.598-6.188.303-1.088.122-1.552-.059-2.016 0 0-.05.036-.08.042 1.408-.744 2.814-1.57 4.297-2.22 1.222-.536 2.536-.865 3.809-1.285.402 1.591 1.47 3.369 1.087 4.74-1.38 4.932-2.246 9.681.15 15.291-1.206-.796-2.388-1.632-3.625-2.377-1.256-.756-2.567-1.421-4.253-2.113z"/><path fill="#343434" d="M211.401 172.386c.557 1.78.797 3.354 1.2 5.995-2.002-.715-3.293-1.176-4.733-2.012 1.175-1.47-2.67-7.122 3.533-3.983z"/><path fill="#F3EBEB" d="M183.65 206.368c.285-.779.929-1.553 1.929-2.347-.285.77-.927 1.56-1.929 2.347z"/><path fill="#343434" d="M152.677 276.921c-.186 1.284-.414 2.179-.642 3.074l-1.6.238-4.306-16.333 2.292-.685c1.405 4.44 2.81 8.878 4.256 13.706z"/><path fill="#F3DDDC" d="M208.731 363.94c.464.476.645.94.457 1.72-.624.14-.836-.08-1.114-.541.052-.531.213-.86.657-1.179z"/></svg>